<svg xmlns="http://www.w3.org/2000/svg" xmlns:xlink="http://www.w3.org/1999/xlink" width="500" zoomAndPan="magnify" viewBox="0 0 375 374.999991" height="500" preserveAspectRatio="xMidYMid meet" version="1.2"><defs><clipPath id="d98be9d145"><path d="M 29.003906 148.796875 L 106.25 148.796875 L 106.25 226.042969 L 29.003906 226.042969 Z M 29.003906 148.796875 "/></clipPath></defs><g id="10789779d5"><g clip-rule="nonzero" clip-path="url(#d98be9d145)"><path style=" stroke:none;fill-rule:nonzero;fill:#ed1c24;fill-opacity:1;" d="M 85.183594 159.332031 L 85.183594 187.421875 C 85.183594 197.117188 77.324219 204.976562 67.625 204.976562 C 57.929688 204.976562 50.070312 197.117188 50.070312 187.421875 L 50.070312 155.820312 L 53.582031 155.820312 C 55.519531 155.820312 57.09375 157.394531 57.09375 159.332031 L 57.09375 187.421875 C 57.09375 193.238281 61.808594 197.953125 67.625 197.953125 C 73.445312 197.953125 78.160156 193.238281 78.160156 187.421875 L 78.160156 148.796875 L 74.648438 148.796875 C 72.710938 148.796875 71.136719 150.371094 71.136719 152.308594 L 71.136719 187.421875 C 71.136719 189.359375 69.566406 190.933594 67.625 190.933594 C 65.6875 190.933594 64.117188 189.359375 64.117188 187.421875 L 64.117188 159.332031 C 64.117188 153.515625 59.398438 148.796875 53.582031 148.796875 L 43.046875 148.796875 L 43.046875 187.421875 C 43.046875 200.996094 54.050781 212 67.625 212 C 81.199219 212 92.203125 200.996094 92.203125 187.421875 L 92.203125 159.332031 C 92.203125 157.394531 93.777344 155.820312 95.714844 155.820312 L 99.226562 155.820312 L 99.226562 187.421875 C 99.226562 204.875 85.078125 219.023438 67.625 219.023438 C 50.175781 219.023438 36.027344 204.875 36.027344 187.421875 L 36.027344 152.308594 C 36.027344 150.371094 34.453125 148.796875 32.515625 148.796875 L 29.003906 148.796875 L 29.003906 187.421875 C 29.003906 208.75 46.296875 226.042969 67.625 226.042969 C 88.957031 226.042969 106.25 208.75 106.25 187.421875 L 106.25 148.796875 L 95.714844 148.796875 C 89.898438 148.796875 85.183594 153.515625 85.183594 159.332031 "/></g><g style="fill:#ffffff;fill-opacity:1;"><g transform="translate(116.952202, 189.240175)"><path style="stroke:none" d="M 28.546875 -26.8125 L 25.265625 -26.1875 C 25.234375 -25.207031 25.191406 -24.0625 25.140625 -22.75 C 25.097656 -21.445312 25.078125 -20.175781 25.078125 -18.9375 L 25.078125 -12.203125 C 25.078125 -7.984375 24.289062 -4.789062 22.71875 -2.625 C 21.144531 -0.457031 18.632812 0.625 15.1875 0.625 C 11.59375 0.625 8.867188 -0.445312 7.015625 -2.59375 C 5.160156 -4.75 4.234375 -7.9375 4.234375 -12.15625 L 4.234375 -18.75 C 4.234375 -19.90625 4.222656 -21.039062 4.203125 -22.15625 C 4.191406 -23.269531 4.171875 -24.226562 4.140625 -25.03125 C 4.078125 -25.800781 3.695312 -26.28125 3 -26.46875 C 2.300781 -26.664062 1.582031 -26.828125 0.84375 -26.953125 L 1.03125 -27.890625 L 5.34375 -27.65625 L 6.546875 -27.65625 L 11.453125 -27.84375 L 11.625 -26.8125 L 7.796875 -26.109375 C 7.765625 -25.179688 7.734375 -24.078125 7.703125 -22.796875 C 7.671875 -21.523438 7.65625 -20.175781 7.65625 -18.75 L 7.65625 -12.203125 C 7.65625 -4.773438 10.300781 -1.0625 15.59375 -1.0625 C 21 -1.0625 23.703125 -4.773438 23.703125 -12.203125 L 23.703125 -18.9375 C 23.703125 -20.0625 23.691406 -21.15625 23.671875 -22.21875 C 23.660156 -23.289062 23.640625 -24.226562 23.609375 -25.03125 C 23.578125 -25.539062 23.332031 -25.910156 22.875 -26.140625 C 22.414062 -26.378906 21.878906 -26.550781 21.265625 -26.65625 C 20.660156 -26.757812 20.101562 -26.84375 19.59375 -26.90625 L 19.78125 -27.890625 L 24.1875 -27.65625 L 24.359375 -27.65625 L 28.375 -27.84375 Z M 28.546875 -26.8125 "/></g></g><g style="fill:#ffffff;fill-opacity:1;"><g transform="translate(146.346908, 189.240175)"><path style="stroke:none" d="M 27.390625 -18.125 L 27.390625 -8.328125 C 27.390625 -6.066406 27.421875 -4.234375 27.484375 -2.828125 C 27.546875 -1.421875 27.59375 -0.476562 27.625 0 L 25.84375 0 C 25.84375 0 25.519531 -0.390625 24.875 -1.171875 C 24.238281 -1.960938 23.394531 -3.007812 22.34375 -4.3125 C 21.289062 -5.625 20.125 -7.066406 18.84375 -8.640625 C 17.5625 -10.210938 16.257812 -11.804688 14.9375 -13.421875 C 13.625 -15.046875 12.394531 -16.546875 11.25 -17.921875 C 10.101562 -19.304688 9.132812 -20.457031 8.34375 -21.375 C 7.5625 -22.300781 7.066406 -22.851562 6.859375 -23.03125 L 7 -10.828125 C 7.019531 -9.335938 7.050781 -7.847656 7.09375 -6.359375 C 7.144531 -4.878906 7.1875 -3.632812 7.21875 -2.625 C 7.25 -2.15625 7.460938 -1.789062 7.859375 -1.53125 C 8.265625 -1.28125 8.738281 -1.109375 9.28125 -1.015625 C 9.832031 -0.929688 10.347656 -0.84375 10.828125 -0.75 L 10.6875 0.21875 L 6.421875 0 L 6.1875 0 L 1.875 0.171875 L 1.6875 -0.84375 L 5.390625 -1.515625 C 5.421875 -2.640625 5.441406 -3.914062 5.453125 -5.34375 C 5.472656 -6.769531 5.484375 -8.179688 5.484375 -9.578125 L 5.484375 -18.984375 C 5.484375 -20.171875 5.472656 -21.289062 5.453125 -22.34375 C 5.441406 -23.394531 5.421875 -24.273438 5.390625 -24.984375 L 5.390625 -25.078125 C 5.359375 -25.554688 5.140625 -25.90625 4.734375 -26.125 C 4.335938 -26.34375 3.863281 -26.503906 3.3125 -26.609375 C 2.769531 -26.710938 2.257812 -26.8125 1.78125 -26.90625 L 1.921875 -27.890625 L 6.328125 -27.65625 L 7.484375 -27.65625 C 8.253906 -26.65625 9.195312 -25.441406 10.3125 -24.015625 C 11.425781 -22.585938 12.617188 -21.078125 13.890625 -19.484375 C 15.171875 -17.898438 16.457031 -16.320312 17.75 -14.75 C 19.039062 -13.175781 20.25 -11.703125 21.375 -10.328125 C 22.507812 -8.960938 23.484375 -7.8125 24.296875 -6.875 C 25.117188 -5.945312 25.675781 -5.316406 25.96875 -4.984375 L 25.84375 -16.84375 C 25.8125 -18.53125 25.78125 -20.085938 25.75 -21.515625 C 25.71875 -22.941406 25.6875 -24.113281 25.65625 -25.03125 C 25.59375 -25.539062 25.367188 -25.910156 24.984375 -26.140625 C 24.597656 -26.378906 24.140625 -26.550781 23.609375 -26.65625 C 23.078125 -26.757812 22.554688 -26.859375 22.046875 -26.953125 L 22.1875 -27.890625 L 26.375 -27.65625 L 31 -27.84375 L 31.1875 -26.8125 L 27.484375 -26.15625 C 27.453125 -25.050781 27.425781 -23.789062 27.40625 -22.375 C 27.394531 -20.96875 27.390625 -19.550781 27.390625 -18.125 Z M 27.390625 -18.125 "/></g></g><g style="fill:#ffffff;fill-opacity:1;"><g transform="translate(178.369332, 189.240175)"><path style="stroke:none" d="M 19.46875 -6.109375 L 20.765625 -5.703125 L 18.796875 0.484375 C 18.171875 0.335938 17.566406 0.226562 16.984375 0.15625 C 16.410156 0.0820312 15.707031 0.03125 14.875 0 L 6.59375 0 L 1.875 0.171875 L 1.6875 -0.84375 L 5.34375 -1.515625 C 5.40625 -2.378906 5.457031 -3.460938 5.5 -4.765625 C 5.539062 -6.078125 5.5625 -7.382812 5.5625 -8.6875 L 5.5625 -18.890625 C 5.5625 -20.015625 5.554688 -21.109375 5.546875 -22.171875 C 5.535156 -23.242188 5.5 -24.179688 5.4375 -24.984375 C 5.375 -25.492188 5.148438 -25.863281 4.765625 -26.09375 C 4.378906 -26.332031 3.914062 -26.503906 3.375 -26.609375 C 2.84375 -26.710938 2.328125 -26.8125 1.828125 -26.90625 L 1.953125 -27.84375 L 6.421875 -27.65625 L 7.890625 -27.65625 L 12.609375 -27.84375 L 12.78125 -26.8125 L 9.125 -26.15625 C 9.101562 -25.082031 9.066406 -23.734375 9.015625 -22.109375 C 8.972656 -20.492188 8.953125 -18.914062 8.953125 -17.375 L 8.953125 -8.6875 C 8.953125 -7.289062 8.957031 -5.910156 8.96875 -4.546875 C 8.988281 -3.179688 9.015625 -2.113281 9.046875 -1.34375 C 10.972656 -1.363281 12.613281 -1.394531 13.96875 -1.4375 C 15.320312 -1.488281 16.382812 -1.53125 17.15625 -1.5625 Z M 19.46875 -6.109375 "/></g></g><g style="fill:#ffffff;fill-opacity:1;"><g transform="translate(199.480072, 189.240175)"><path style="stroke:none" d="M 9.09375 -2.671875 C 9.113281 -2.171875 9.320312 -1.800781 9.71875 -1.5625 C 10.125 -1.320312 10.601562 -1.148438 11.15625 -1.046875 C 11.707031 -0.941406 12.222656 -0.84375 12.703125 -0.75 L 12.5625 0.21875 L 8.109375 0 L 6.6875 0 L 1.875 0.171875 L 1.6875 -0.84375 L 5.390625 -1.515625 C 5.453125 -2.316406 5.492188 -3.363281 5.515625 -4.65625 C 5.546875 -5.945312 5.5625 -7.289062 5.5625 -8.6875 L 5.5625 -18.890625 C 5.5625 -20.015625 5.546875 -21.117188 5.515625 -22.203125 C 5.492188 -23.285156 5.46875 -24.210938 5.4375 -24.984375 C 5.40625 -25.492188 5.1875 -25.863281 4.78125 -26.09375 C 4.382812 -26.332031 3.914062 -26.503906 3.375 -26.609375 C 2.84375 -26.710938 2.328125 -26.8125 1.828125 -26.90625 L 1.953125 -27.890625 L 6.421875 -27.65625 L 7.890625 -27.65625 L 12.65625 -27.84375 L 12.78125 -26.8125 L 9.125 -26.15625 C 9.101562 -25.257812 9.066406 -24.15625 9.015625 -22.84375 C 8.972656 -21.539062 8.953125 -20.222656 8.953125 -18.890625 L 8.953125 -8.6875 C 8.953125 -7.582031 8.96875 -6.492188 9 -5.421875 C 9.03125 -4.359375 9.0625 -3.441406 9.09375 -2.671875 Z M 9.09375 -2.671875 "/></g></g><g style="fill:#ffffff;fill-opacity:1;"><g transform="translate(213.999276, 189.240175)"><path style="stroke:none" d="M 33.5 -2.671875 C 33.5625 -2.191406 33.785156 -1.828125 34.171875 -1.578125 C 34.554688 -1.328125 35.019531 -1.148438 35.5625 -1.046875 C 36.113281 -0.941406 36.628906 -0.84375 37.109375 -0.75 L 36.96875 0.171875 L 32.515625 0 L 30.875 0 L 26.15625 0.171875 L 25.96875 -0.84375 L 29.625 -1.5625 C 29.59375 -2.238281 29.5625 -3.097656 29.53125 -4.140625 C 29.5 -5.179688 29.457031 -6.367188 29.40625 -7.703125 C 29.375 -8.742188 29.304688 -10.039062 29.203125 -11.59375 C 29.097656 -13.15625 28.984375 -14.769531 28.859375 -16.4375 C 28.742188 -18.101562 28.617188 -19.640625 28.484375 -21.046875 C 28.347656 -22.460938 28.222656 -23.539062 28.109375 -24.28125 L 18.578125 -5.75 L 17.0625 -5.703125 C 16.5 -6.890625 15.878906 -8.195312 15.203125 -9.625 C 14.535156 -11.050781 13.859375 -12.484375 13.171875 -13.921875 C 12.492188 -15.359375 11.859375 -16.710938 11.265625 -17.984375 C 10.671875 -19.265625 10.171875 -20.347656 9.765625 -21.234375 C 9.367188 -22.128906 9.113281 -22.710938 9 -22.984375 L 7.84375 -25.609375 L 6.6875 -8.734375 C 6.625 -7.578125 6.566406 -6.46875 6.515625 -5.40625 C 6.472656 -4.351562 6.425781 -3.441406 6.375 -2.671875 C 6.375 -2.222656 6.570312 -1.875 6.96875 -1.625 C 7.375 -1.375 7.859375 -1.1875 8.421875 -1.0625 C 8.984375 -0.945312 9.503906 -0.84375 9.984375 -0.75 L 9.84375 0.21875 L 5.65625 0 L 5.4375 0 L 1.03125 0.171875 L 0.84375 -0.84375 L 4.5 -1.5625 C 4.613281 -2.6875 4.753906 -4.09375 4.921875 -5.78125 C 5.085938 -7.476562 5.226562 -9.113281 5.34375 -10.6875 L 6.0625 -18.984375 C 6.175781 -20.285156 6.269531 -21.457031 6.34375 -22.5 C 6.414062 -23.539062 6.46875 -24.382812 6.5 -25.03125 C 6.5 -25.539062 6.296875 -25.910156 5.890625 -26.140625 C 5.492188 -26.378906 5.015625 -26.550781 4.453125 -26.65625 C 3.890625 -26.757812 3.351562 -26.859375 2.84375 -26.953125 L 3.03125 -27.9375 L 7.390625 -27.65625 L 10.25 -27.65625 C 10.84375 -26.46875 11.515625 -25.019531 12.265625 -23.3125 C 13.023438 -21.613281 13.867188 -19.796875 14.796875 -17.859375 L 18.703125 -9.484375 L 23.5625 -18.625 C 24.300781 -20.050781 24.984375 -21.382812 25.609375 -22.625 C 26.234375 -23.875 26.769531 -24.941406 27.21875 -25.828125 C 27.664062 -26.722656 27.960938 -27.332031 28.109375 -27.65625 L 30.296875 -27.65625 L 35.0625 -27.84375 L 35.1875 -26.8125 L 31.546875 -26.109375 L 32.921875 -8.6875 C 33.035156 -7.40625 33.132812 -6.257812 33.21875 -5.25 C 33.3125 -4.238281 33.40625 -3.378906 33.5 -2.671875 Z M 33.5 -2.671875 "/></g></g><g style="fill:#ffffff;fill-opacity:1;"><g transform="translate(251.94517, 189.240175)"><path style="stroke:none" d="M 9.09375 -2.671875 C 9.113281 -2.171875 9.320312 -1.800781 9.71875 -1.5625 C 10.125 -1.320312 10.601562 -1.148438 11.15625 -1.046875 C 11.707031 -0.941406 12.222656 -0.84375 12.703125 -0.75 L 12.5625 0.21875 L 8.109375 0 L 6.6875 0 L 1.875 0.171875 L 1.6875 -0.84375 L 5.390625 -1.515625 C 5.453125 -2.316406 5.492188 -3.363281 5.515625 -4.65625 C 5.546875 -5.945312 5.5625 -7.289062 5.5625 -8.6875 L 5.5625 -18.890625 C 5.5625 -20.015625 5.546875 -21.117188 5.515625 -22.203125 C 5.492188 -23.285156 5.46875 -24.210938 5.4375 -24.984375 C 5.40625 -25.492188 5.1875 -25.863281 4.78125 -26.09375 C 4.382812 -26.332031 3.914062 -26.503906 3.375 -26.609375 C 2.84375 -26.710938 2.328125 -26.8125 1.828125 -26.90625 L 1.953125 -27.890625 L 6.421875 -27.65625 L 7.890625 -27.65625 L 12.65625 -27.84375 L 12.78125 -26.8125 L 9.125 -26.15625 C 9.101562 -25.257812 9.066406 -24.15625 9.015625 -22.84375 C 8.972656 -21.539062 8.953125 -20.222656 8.953125 -18.890625 L 8.953125 -8.6875 C 8.953125 -7.582031 8.96875 -6.492188 9 -5.421875 C 9.03125 -4.359375 9.0625 -3.441406 9.09375 -2.671875 Z M 9.09375 -2.671875 "/></g></g><g style="fill:#ffffff;fill-opacity:1;"><g transform="translate(266.464374, 189.240175)"><path style="stroke:none" d="M 13.09375 -26.234375 C 13.0625 -25.972656 13.035156 -25.484375 13.015625 -24.765625 C 13.003906 -24.054688 13 -23.253906 13 -22.359375 L 13 -8.6875 C 13 -7.582031 13.003906 -6.492188 13.015625 -5.421875 C 13.035156 -4.359375 13.0625 -3.441406 13.09375 -2.671875 C 13.125 -2.171875 13.335938 -1.800781 13.734375 -1.5625 C 14.140625 -1.320312 14.617188 -1.148438 15.171875 -1.046875 C 15.722656 -0.941406 16.234375 -0.84375 16.703125 -0.75 L 16.578125 0.171875 L 12.15625 0 L 10.734375 0 L 6.015625 0.171875 L 5.828125 -0.84375 L 9.4375 -1.515625 C 9.5 -2.492188 9.546875 -3.617188 9.578125 -4.890625 C 9.609375 -6.171875 9.625 -7.4375 9.625 -8.6875 L 9.625 -22.359375 C 9.625 -23.253906 9.613281 -24.054688 9.59375 -24.765625 C 9.582031 -25.484375 9.5625 -25.972656 9.53125 -26.234375 C 8.4375 -26.203125 7.332031 -26.179688 6.21875 -26.171875 C 5.101562 -26.160156 4.097656 -26.125 3.203125 -26.0625 L 1.515625 -22.09375 L 0.359375 -22.453125 L 1.109375 -27.96875 C 1.585938 -27.914062 2.179688 -27.859375 2.890625 -27.796875 C 3.609375 -27.734375 4.335938 -27.6875 5.078125 -27.65625 L 17.6875 -27.65625 C 18.457031 -27.6875 19.191406 -27.734375 19.890625 -27.796875 C 20.585938 -27.859375 21.175781 -27.914062 21.65625 -27.96875 L 22.359375 -22.453125 L 21.203125 -22.09375 L 19.46875 -26.0625 C 18.632812 -26.125 17.664062 -26.160156 16.5625 -26.171875 C 15.46875 -26.179688 14.3125 -26.203125 13.09375 -26.234375 Z M 13.09375 -26.234375 "/></g></g><g style="fill:#ffffff;fill-opacity:1;"><g transform="translate(289.178469, 189.240175)"><path style="stroke:none" d="M 21.375 -6.0625 L 22.625 -5.65625 L 20.890625 0.359375 C 20.210938 0.265625 19.585938 0.1875 19.015625 0.125 C 18.453125 0.0703125 17.785156 0.03125 17.015625 0 L 6.59375 0 L 1.875 0.171875 L 1.6875 -0.84375 L 5.34375 -1.515625 C 5.40625 -2.492188 5.457031 -3.609375 5.5 -4.859375 C 5.539062 -6.109375 5.5625 -7.398438 5.5625 -8.734375 L 5.5625 -18.890625 C 5.5625 -20.015625 5.554688 -21.109375 5.546875 -22.171875 C 5.535156 -23.242188 5.5 -24.179688 5.4375 -24.984375 L 5.4375 -25.03125 C 5.40625 -25.539062 5.1875 -25.90625 4.78125 -26.125 C 4.382812 -26.34375 3.914062 -26.503906 3.375 -26.609375 C 2.84375 -26.710938 2.328125 -26.8125 1.828125 -26.90625 L 1.953125 -27.84375 L 7.03125 -27.65625 L 16.078125 -27.65625 C 16.847656 -27.6875 17.582031 -27.738281 18.28125 -27.8125 C 18.976562 -27.894531 19.566406 -27.960938 20.046875 -28.015625 L 20.796875 -22.5 L 19.640625 -22.140625 L 18.359375 -26.109375 C 17.523438 -26.160156 16.28125 -26.207031 14.625 -26.25 C 12.976562 -26.300781 11.101562 -26.328125 9 -26.328125 L 9 -14.390625 C 10.6875 -14.390625 12.050781 -14.394531 13.09375 -14.40625 C 14.132812 -14.425781 14.9375 -14.453125 15.5 -14.484375 C 16.007812 -14.535156 16.328125 -14.847656 16.453125 -15.421875 C 16.585938 -16.003906 16.671875 -16.535156 16.703125 -17.015625 L 17.8125 -16.84375 L 17.734375 -14.203125 L 17.859375 -10.640625 L 16.75 -10.46875 L 16.296875 -12.921875 C 15.734375 -12.953125 14.859375 -12.972656 13.671875 -12.984375 C 12.484375 -12.992188 10.925781 -13.015625 9 -13.046875 L 9 -1.34375 L 19.203125 -1.46875 Z M 21.375 -6.0625 "/></g></g><g style="fill:#ffffff;fill-opacity:1;"><g transform="translate(313.095076, 189.240175)"><path style="stroke:none" d="M 14.515625 -27.84375 C 17.222656 -27.84375 19.644531 -27.320312 21.78125 -26.28125 C 23.914062 -25.238281 25.609375 -23.703125 26.859375 -21.671875 C 28.109375 -19.640625 28.734375 -17.109375 28.734375 -14.078125 C 28.734375 -11.140625 28.15625 -8.597656 27 -6.453125 C 25.84375 -4.316406 24.191406 -2.671875 22.046875 -1.515625 C 19.910156 -0.359375 17.359375 0.21875 14.390625 0.21875 C 13.585938 0.21875 12.566406 0.179688 11.328125 0.109375 C 10.097656 0.0351562 8.863281 0 7.625 0 L 6.59375 0 L 1.875 0.171875 L 1.6875 -0.84375 L 5.34375 -1.515625 C 5.40625 -2.492188 5.453125 -3.617188 5.484375 -4.890625 C 5.515625 -6.171875 5.53125 -7.4375 5.53125 -8.6875 L 5.53125 -18.890625 C 5.53125 -19.984375 5.519531 -21.078125 5.5 -22.171875 C 5.488281 -23.273438 5.453125 -24.210938 5.390625 -24.984375 C 5.359375 -25.492188 5.140625 -25.863281 4.734375 -26.09375 C 4.335938 -26.332031 3.875 -26.503906 3.34375 -26.609375 C 2.8125 -26.710938 2.289062 -26.8125 1.78125 -26.90625 L 1.921875 -27.84375 L 7.21875 -27.65625 C 7.8125 -27.65625 8.53125 -27.671875 9.375 -27.703125 C 10.21875 -27.734375 11.097656 -27.765625 12.015625 -27.796875 C 12.941406 -27.828125 13.773438 -27.84375 14.515625 -27.84375 Z M 14.171875 -1.203125 C 16.003906 -1.203125 17.753906 -1.644531 19.421875 -2.53125 C 21.085938 -3.425781 22.445312 -4.796875 23.5 -6.640625 C 24.550781 -8.484375 25.078125 -10.8125 25.078125 -13.625 C 25.078125 -15.144531 24.898438 -16.65625 24.546875 -18.15625 C 24.191406 -19.65625 23.597656 -21.035156 22.765625 -22.296875 C 21.929688 -23.554688 20.804688 -24.5625 19.390625 -25.3125 C 17.984375 -26.070312 16.210938 -26.453125 14.078125 -26.453125 C 12.859375 -26.453125 11.773438 -26.4375 10.828125 -26.40625 C 9.878906 -26.382812 9.253906 -26.375 8.953125 -26.375 L 8.953125 -8.6875 C 8.953125 -7.289062 8.96875 -5.894531 9 -4.5 C 9.03125 -3.101562 9.070312 -2.019531 9.125 -1.25 C 10.019531 -1.25 10.703125 -1.25 11.171875 -1.25 C 11.648438 -1.25 12.101562 -1.238281 12.53125 -1.21875 C 12.96875 -1.207031 13.515625 -1.203125 14.171875 -1.203125 Z M 14.171875 -1.203125 "/></g></g><g style="fill:#ff0011;fill-opacity:1;"><g transform="translate(133.438979, 206.746861)"><path style="stroke:none" d="M 6.40625 -0.390625 L 7.1875 -1.75 L 7.578125 -1.625 L 7.046875 -0.078125 L 5.8125 0.09375 C 5.8125 0.101562 5.796875 0.109375 5.765625 0.109375 C 5.648438 0.128906 5.523438 0.144531 5.390625 0.15625 C 5.253906 0.175781 5.109375 0.1875 4.953125 0.1875 C 4.066406 0.1875 3.28125 0 2.59375 -0.375 C 1.914062 -0.75 1.382812 -1.273438 1 -1.953125 C 0.625 -2.640625 0.4375 -3.441406 0.4375 -4.359375 C 0.4375 -5.117188 0.5625 -5.78125 0.8125 -6.34375 C 1.0625 -6.90625 1.398438 -7.367188 1.828125 -7.734375 C 2.265625 -8.097656 2.765625 -8.367188 3.328125 -8.546875 C 3.898438 -8.734375 4.5 -8.828125 5.125 -8.828125 C 5.476562 -8.828125 5.84375 -8.8125 6.21875 -8.78125 C 6.59375 -8.75 6.925781 -8.726562 7.21875 -8.71875 L 7.59375 -6.75 L 7.21875 -6.640625 L 6.640625 -8.09375 C 6.515625 -8.164062 6.332031 -8.234375 6.09375 -8.296875 C 5.863281 -8.367188 5.570312 -8.40625 5.21875 -8.40625 C 4.820312 -8.40625 4.410156 -8.328125 3.984375 -8.171875 C 3.566406 -8.023438 3.175781 -7.785156 2.8125 -7.453125 C 2.445312 -7.128906 2.148438 -6.707031 1.921875 -6.1875 C 1.703125 -5.675781 1.59375 -5.0625 1.59375 -4.34375 C 1.59375 -3.59375 1.726562 -2.90625 2 -2.28125 C 2.269531 -1.664062 2.664062 -1.171875 3.1875 -0.796875 C 3.707031 -0.429688 4.335938 -0.25 5.078125 -0.25 C 5.378906 -0.25 5.640625 -0.257812 5.859375 -0.28125 C 6.078125 -0.3125 6.257812 -0.347656 6.40625 -0.390625 Z M 6.40625 -0.390625 "/></g></g><g style="fill:#ff0011;fill-opacity:1;"><g transform="translate(147.214483, 206.746861)"><path style="stroke:none" d="M 7.46875 -0.984375 C 7.644531 -0.703125 7.816406 -0.503906 7.984375 -0.390625 C 8.148438 -0.285156 8.335938 -0.207031 8.546875 -0.15625 L 8.515625 -0.015625 C 8.484375 -0.00390625 8.425781 0.0078125 8.34375 0.03125 C 8.257812 0.0507812 8.164062 0.0664062 8.0625 0.078125 C 7.789062 0.0976562 7.523438 0.0507812 7.265625 -0.0625 C 6.992188 -0.1875 6.757812 -0.382812 6.5625 -0.65625 C 6.375 -0.9375 6.203125 -1.269531 6.046875 -1.65625 C 5.890625 -2.039062 5.726562 -2.445312 5.5625 -2.875 C 5.40625 -3.238281 5.226562 -3.578125 5.03125 -3.890625 C 4.84375 -4.203125 4.613281 -4.457031 4.34375 -4.65625 C 4.070312 -4.851562 3.75 -4.972656 3.375 -5.015625 L 3.25 -5.375 L 3.546875 -5.390625 C 3.703125 -5.390625 3.882812 -5.414062 4.09375 -5.46875 C 4.300781 -5.519531 4.507812 -5.597656 4.71875 -5.703125 C 4.9375 -5.816406 5.109375 -5.972656 5.234375 -6.171875 C 5.367188 -6.367188 5.4375 -6.613281 5.4375 -6.90625 C 5.4375 -7.4375 5.273438 -7.796875 4.953125 -7.984375 C 4.640625 -8.171875 4.25 -8.265625 3.78125 -8.265625 C 3.632812 -8.265625 3.488281 -8.257812 3.34375 -8.25 C 3.195312 -8.238281 3.007812 -8.234375 2.78125 -8.234375 L 2.78125 -2.71875 C 2.78125 -2.375 2.785156 -2.035156 2.796875 -1.703125 C 2.804688 -1.378906 2.816406 -1.09375 2.828125 -0.84375 C 2.835938 -0.6875 2.90625 -0.566406 3.03125 -0.484375 C 3.15625 -0.410156 3.300781 -0.359375 3.46875 -0.328125 C 3.644531 -0.296875 3.804688 -0.265625 3.953125 -0.234375 L 3.90625 0.0625 L 2.515625 0 L 2.0625 0 L 0.578125 0.0625 L 0.53125 -0.265625 L 1.671875 -0.453125 C 1.691406 -0.765625 1.703125 -1.175781 1.703125 -1.6875 C 1.710938 -2.195312 1.71875 -2.707031 1.71875 -3.21875 L 1.71875 -5.90625 C 1.71875 -6.257812 1.71875 -6.601562 1.71875 -6.9375 C 1.71875 -7.28125 1.707031 -7.570312 1.6875 -7.8125 C 1.675781 -7.96875 1.609375 -8.082031 1.484375 -8.15625 C 1.359375 -8.226562 1.210938 -8.28125 1.046875 -8.3125 C 0.878906 -8.34375 0.71875 -8.375 0.5625 -8.40625 L 0.59375 -8.703125 L 2 -8.640625 L 2.390625 -8.640625 C 2.734375 -8.640625 3.066406 -8.648438 3.390625 -8.671875 C 3.722656 -8.691406 4.046875 -8.6875 4.359375 -8.65625 C 4.679688 -8.632812 5 -8.5625 5.3125 -8.4375 C 5.726562 -8.289062 6.019531 -8.097656 6.1875 -7.859375 C 6.363281 -7.617188 6.453125 -7.320312 6.453125 -6.96875 C 6.453125 -6.476562 6.25 -6.078125 5.84375 -5.765625 C 5.4375 -5.453125 4.929688 -5.257812 4.328125 -5.1875 C 4.910156 -4.988281 5.382812 -4.722656 5.75 -4.390625 C 6.125 -4.054688 6.410156 -3.640625 6.609375 -3.140625 C 6.773438 -2.742188 6.921875 -2.34375 7.046875 -1.9375 C 7.171875 -1.539062 7.3125 -1.222656 7.46875 -0.984375 Z M 7.46875 -0.984375 "/></g></g><g style="fill:#ff0011;fill-opacity:1;"><g transform="translate(161.323822, 206.746861)"><path style="stroke:none" d="M 6.6875 -1.890625 L 7.078125 -1.765625 L 6.53125 0.109375 C 6.3125 0.078125 6.113281 0.0507812 5.9375 0.03125 C 5.769531 0.0195312 5.5625 0.0078125 5.3125 0 L 2.0625 0 L 0.578125 0.0625 L 0.53125 -0.265625 L 1.671875 -0.46875 C 1.691406 -0.78125 1.707031 -1.128906 1.71875 -1.515625 C 1.726562 -1.910156 1.734375 -2.316406 1.734375 -2.734375 L 1.734375 -5.90625 C 1.734375 -6.257812 1.726562 -6.601562 1.71875 -6.9375 C 1.71875 -7.269531 1.710938 -7.5625 1.703125 -7.8125 L 1.703125 -7.828125 C 1.691406 -7.984375 1.625 -8.09375 1.5 -8.15625 C 1.375 -8.226562 1.226562 -8.28125 1.0625 -8.3125 C 0.894531 -8.34375 0.734375 -8.375 0.578125 -8.40625 L 0.609375 -8.703125 L 2.203125 -8.640625 L 5.03125 -8.640625 C 5.269531 -8.648438 5.5 -8.664062 5.71875 -8.6875 C 5.9375 -8.71875 6.117188 -8.738281 6.265625 -8.75 L 6.5 -7.03125 L 6.140625 -6.921875 L 5.734375 -8.15625 C 5.472656 -8.175781 5.082031 -8.191406 4.5625 -8.203125 C 4.050781 -8.222656 3.46875 -8.234375 2.8125 -8.234375 L 2.8125 -4.5 C 3.34375 -4.5 3.769531 -4.5 4.09375 -4.5 C 4.414062 -4.507812 4.664062 -4.519531 4.84375 -4.53125 C 5 -4.539062 5.097656 -4.632812 5.140625 -4.8125 C 5.179688 -5 5.207031 -5.164062 5.21875 -5.3125 L 5.5625 -5.265625 L 5.546875 -4.4375 L 5.578125 -3.328125 L 5.234375 -3.265625 L 5.09375 -4.03125 C 4.914062 -4.039062 4.640625 -4.046875 4.265625 -4.046875 C 3.898438 -4.054688 3.414062 -4.066406 2.8125 -4.078125 L 2.8125 -0.421875 L 6 -0.453125 Z M 6.6875 -1.890625 "/></g></g><g style="fill:#ff0011;fill-opacity:1;"><g transform="translate(174.250804, 206.746861)"><path style="stroke:none" d="M 8.921875 -0.234375 L 8.875 0.0625 L 8.09375 0 L 7.21875 0 L 5.75 0.0625 L 5.6875 -0.265625 L 6.828125 -0.46875 C 6.753906 -0.71875 6.65625 -1.039062 6.53125 -1.4375 C 6.40625 -1.832031 6.265625 -2.265625 6.109375 -2.734375 L 5.78125 -3.6875 L 2.796875 -3.6875 L 2.359375 -2.53125 C 2.222656 -2.21875 2.097656 -1.90625 1.984375 -1.59375 C 1.878906 -1.289062 1.789062 -1.03125 1.71875 -0.8125 C 1.664062 -0.601562 1.75 -0.46875 1.96875 -0.40625 C 2.1875 -0.34375 2.488281 -0.289062 2.875 -0.25 L 2.8125 0.046875 L 1.375 0 L 0.171875 0.0625 L 0.109375 -0.265625 L 1 -0.46875 C 1.101562 -0.707031 1.234375 -1.019531 1.390625 -1.40625 C 1.554688 -1.789062 1.722656 -2.195312 1.890625 -2.625 L 4.234375 -8.640625 L 5.078125 -8.71875 L 7.25 -2.734375 C 7.382812 -2.359375 7.507812 -2.007812 7.625 -1.6875 C 7.75 -1.375 7.863281 -1.09375 7.96875 -0.84375 C 8.0625 -0.632812 8.1875 -0.492188 8.34375 -0.421875 C 8.5 -0.347656 8.691406 -0.285156 8.921875 -0.234375 Z M 4.921875 -4.171875 L 5.609375 -4.171875 L 4.359375 -7.75 L 2.984375 -4.171875 Z M 4.921875 -4.171875 "/></g></g><g style="fill:#ff0011;fill-opacity:1;"><g transform="translate(188.735716, 206.746861)"><path style="stroke:none" d="M 4.09375 -8.203125 C 4.082031 -8.117188 4.070312 -7.960938 4.0625 -7.734375 C 4.0625 -7.515625 4.0625 -7.265625 4.0625 -6.984375 L 4.0625 -2.71875 C 4.0625 -2.375 4.0625 -2.035156 4.0625 -1.703125 C 4.070312 -1.367188 4.082031 -1.078125 4.09375 -0.828125 C 4.101562 -0.671875 4.171875 -0.554688 4.296875 -0.484375 C 4.421875 -0.410156 4.566406 -0.359375 4.734375 -0.328125 C 4.910156 -0.296875 5.070312 -0.265625 5.21875 -0.234375 L 5.171875 0.0625 L 3.796875 0 L 3.359375 0 L 1.875 0.0625 L 1.828125 -0.265625 L 2.953125 -0.46875 C 2.972656 -0.78125 2.984375 -1.132812 2.984375 -1.53125 C 2.992188 -1.925781 3 -2.320312 3 -2.71875 L 3 -6.984375 C 3 -7.265625 3 -7.515625 3 -7.734375 C 3 -7.960938 2.992188 -8.117188 2.984375 -8.203125 C 2.640625 -8.191406 2.289062 -8.179688 1.9375 -8.171875 C 1.59375 -8.171875 1.28125 -8.160156 1 -8.140625 L 0.46875 -6.90625 L 0.109375 -7.015625 L 0.34375 -8.75 C 0.5 -8.726562 0.6875 -8.707031 0.90625 -8.6875 C 1.125 -8.664062 1.351562 -8.648438 1.59375 -8.640625 L 5.53125 -8.640625 C 5.769531 -8.648438 6 -8.664062 6.21875 -8.6875 C 6.4375 -8.707031 6.617188 -8.726562 6.765625 -8.75 L 6.984375 -7.015625 L 6.625 -6.90625 L 6.078125 -8.140625 C 5.816406 -8.160156 5.515625 -8.171875 5.171875 -8.171875 C 4.828125 -8.179688 4.46875 -8.191406 4.09375 -8.203125 Z M 4.09375 -8.203125 "/></g></g><g style="fill:#ff0011;fill-opacity:1;"><g transform="translate(201.287126, 206.746861)"><path style="stroke:none" d="M 2.84375 -0.828125 C 2.851562 -0.671875 2.921875 -0.554688 3.046875 -0.484375 C 3.171875 -0.410156 3.316406 -0.359375 3.484375 -0.328125 C 3.660156 -0.296875 3.820312 -0.265625 3.96875 -0.234375 L 3.921875 0.0625 L 2.53125 0 L 2.09375 0 L 0.578125 0.0625 L 0.53125 -0.265625 L 1.6875 -0.46875 C 1.707031 -0.71875 1.71875 -1.046875 1.71875 -1.453125 C 1.726562 -1.859375 1.734375 -2.28125 1.734375 -2.71875 L 1.734375 -5.90625 C 1.734375 -6.257812 1.726562 -6.601562 1.71875 -6.9375 C 1.71875 -7.28125 1.710938 -7.570312 1.703125 -7.8125 C 1.691406 -7.96875 1.625 -8.082031 1.5 -8.15625 C 1.375 -8.226562 1.226562 -8.28125 1.0625 -8.3125 C 0.894531 -8.34375 0.734375 -8.375 0.578125 -8.40625 L 0.609375 -8.71875 L 2 -8.640625 L 2.46875 -8.640625 L 3.953125 -8.703125 L 4 -8.375 L 2.859375 -8.171875 C 2.847656 -7.890625 2.832031 -7.546875 2.8125 -7.140625 C 2.800781 -6.734375 2.796875 -6.320312 2.796875 -5.90625 L 2.796875 -2.71875 C 2.796875 -2.375 2.800781 -2.035156 2.8125 -1.703125 C 2.820312 -1.367188 2.832031 -1.078125 2.84375 -0.828125 Z M 2.84375 -0.828125 "/></g></g><g style="fill:#ff0011;fill-opacity:1;"><g transform="translate(211.279076, 206.746861)"><path style="stroke:none" d="M 9.09375 -8.375 L 8.21875 -8.171875 C 8.070312 -7.878906 7.914062 -7.539062 7.75 -7.15625 C 7.582031 -6.769531 7.429688 -6.394531 7.296875 -6.03125 L 4.90625 -0.046875 L 4.078125 0.046875 L 1.78125 -5.921875 C 1.632812 -6.296875 1.5 -6.640625 1.375 -6.953125 C 1.257812 -7.265625 1.148438 -7.535156 1.046875 -7.765625 C 0.953125 -7.992188 0.828125 -8.148438 0.671875 -8.234375 C 0.523438 -8.316406 0.335938 -8.375 0.109375 -8.40625 L 0.15625 -8.703125 L 1.21875 -8.640625 L 1.734375 -8.640625 L 3.4375 -8.703125 L 3.5 -8.375 L 2.140625 -8.171875 C 2.242188 -7.878906 2.359375 -7.53125 2.484375 -7.125 C 2.609375 -6.71875 2.742188 -6.316406 2.890625 -5.921875 L 4.796875 -0.859375 L 6.828125 -6.109375 C 6.960938 -6.429688 7.082031 -6.738281 7.1875 -7.03125 C 7.300781 -7.332031 7.394531 -7.597656 7.46875 -7.828125 C 7.519531 -7.984375 7.460938 -8.097656 7.296875 -8.171875 C 7.140625 -8.242188 6.945312 -8.296875 6.71875 -8.328125 C 6.488281 -8.359375 6.296875 -8.390625 6.140625 -8.421875 L 6.1875 -8.734375 L 7.875 -8.640625 L 7.9375 -8.640625 L 9.03125 -8.703125 Z M 9.09375 -8.375 "/></g></g><g style="fill:#ff0011;fill-opacity:1;"><g transform="translate(225.930912, 206.746861)"><path style="stroke:none" d="M 6.6875 -1.890625 L 7.078125 -1.765625 L 6.53125 0.109375 C 6.3125 0.078125 6.113281 0.0507812 5.9375 0.03125 C 5.769531 0.0195312 5.5625 0.0078125 5.3125 0 L 2.0625 0 L 0.578125 0.0625 L 0.53125 -0.265625 L 1.671875 -0.46875 C 1.691406 -0.78125 1.707031 -1.128906 1.71875 -1.515625 C 1.726562 -1.910156 1.734375 -2.316406 1.734375 -2.734375 L 1.734375 -5.90625 C 1.734375 -6.257812 1.726562 -6.601562 1.71875 -6.9375 C 1.71875 -7.269531 1.710938 -7.5625 1.703125 -7.8125 L 1.703125 -7.828125 C 1.691406 -7.984375 1.625 -8.09375 1.5 -8.15625 C 1.375 -8.226562 1.226562 -8.28125 1.0625 -8.3125 C 0.894531 -8.34375 0.734375 -8.375 0.578125 -8.40625 L 0.609375 -8.703125 L 2.203125 -8.640625 L 5.03125 -8.640625 C 5.269531 -8.648438 5.5 -8.664062 5.71875 -8.6875 C 5.9375 -8.71875 6.117188 -8.738281 6.265625 -8.75 L 6.5 -7.03125 L 6.140625 -6.921875 L 5.734375 -8.15625 C 5.472656 -8.175781 5.082031 -8.191406 4.5625 -8.203125 C 4.050781 -8.222656 3.46875 -8.234375 2.8125 -8.234375 L 2.8125 -4.5 C 3.34375 -4.5 3.769531 -4.5 4.09375 -4.5 C 4.414062 -4.507812 4.664062 -4.519531 4.84375 -4.53125 C 5 -4.539062 5.097656 -4.632812 5.140625 -4.8125 C 5.179688 -5 5.207031 -5.164062 5.21875 -5.3125 L 5.5625 -5.265625 L 5.546875 -4.4375 L 5.578125 -3.328125 L 5.234375 -3.265625 L 5.09375 -4.03125 C 4.914062 -4.039062 4.640625 -4.046875 4.265625 -4.046875 C 3.898438 -4.054688 3.414062 -4.066406 2.8125 -4.078125 L 2.8125 -0.421875 L 6 -0.453125 Z M 6.6875 -1.890625 "/></g></g><g style="fill:#ff0011;fill-opacity:1;"><g transform="translate(238.857894, 206.746861)"><path style="stroke:none" d=""/></g></g><g style="fill:#ff0011;fill-opacity:1;"><g transform="translate(247.667486, 206.746861)"><path style="stroke:none" d="M 8.921875 -0.234375 L 8.875 0.0625 L 8.09375 0 L 7.21875 0 L 5.75 0.0625 L 5.6875 -0.265625 L 6.828125 -0.46875 C 6.753906 -0.71875 6.65625 -1.039062 6.53125 -1.4375 C 6.40625 -1.832031 6.265625 -2.265625 6.109375 -2.734375 L 5.78125 -3.6875 L 2.796875 -3.6875 L 2.359375 -2.53125 C 2.222656 -2.21875 2.097656 -1.90625 1.984375 -1.59375 C 1.878906 -1.289062 1.789062 -1.03125 1.71875 -0.8125 C 1.664062 -0.601562 1.75 -0.46875 1.96875 -0.40625 C 2.1875 -0.34375 2.488281 -0.289062 2.875 -0.25 L 2.8125 0.046875 L 1.375 0 L 0.171875 0.0625 L 0.109375 -0.265625 L 1 -0.46875 C 1.101562 -0.707031 1.234375 -1.019531 1.390625 -1.40625 C 1.554688 -1.789062 1.722656 -2.195312 1.890625 -2.625 L 4.234375 -8.640625 L 5.078125 -8.71875 L 7.25 -2.734375 C 7.382812 -2.359375 7.507812 -2.007812 7.625 -1.6875 C 7.75 -1.375 7.863281 -1.09375 7.96875 -0.84375 C 8.0625 -0.632812 8.1875 -0.492188 8.34375 -0.421875 C 8.5 -0.347656 8.691406 -0.285156 8.921875 -0.234375 Z M 4.921875 -4.171875 L 5.609375 -4.171875 L 4.359375 -7.75 L 2.984375 -4.171875 Z M 4.921875 -4.171875 "/></g></g><g style="fill:#ff0011;fill-opacity:1;"><g transform="translate(262.152398, 206.746861)"><path style="stroke:none" d="M 7.78125 -1.671875 C 7.78125 -1.378906 7.789062 -1.117188 7.8125 -0.890625 C 7.832031 -0.660156 7.847656 -0.492188 7.859375 -0.390625 C 7.585938 -0.265625 7.195312 -0.132812 6.6875 0 C 6.175781 0.125 5.644531 0.1875 5.09375 0.1875 C 4.195312 0.1875 3.394531 0 2.6875 -0.375 C 1.976562 -0.75 1.425781 -1.273438 1.03125 -1.953125 C 0.632812 -2.640625 0.4375 -3.441406 0.4375 -4.359375 C 0.4375 -5.117188 0.554688 -5.78125 0.796875 -6.34375 C 1.046875 -6.90625 1.390625 -7.367188 1.828125 -7.734375 C 2.265625 -8.109375 2.757812 -8.382812 3.3125 -8.5625 C 3.875 -8.75 4.472656 -8.84375 5.109375 -8.84375 C 5.265625 -8.84375 5.421875 -8.832031 5.578125 -8.8125 C 5.742188 -8.789062 5.894531 -8.769531 6.03125 -8.75 C 6.3125 -8.71875 6.554688 -8.695312 6.765625 -8.6875 C 6.984375 -8.6875 7.171875 -8.691406 7.328125 -8.703125 L 7.640625 -6.859375 L 7.28125 -6.75 L 6.75 -8.078125 C 6.601562 -8.148438 6.394531 -8.222656 6.125 -8.296875 C 5.863281 -8.367188 5.53125 -8.40625 5.125 -8.40625 C 4.75 -8.40625 4.359375 -8.332031 3.953125 -8.1875 C 3.546875 -8.039062 3.160156 -7.800781 2.796875 -7.46875 C 2.441406 -7.144531 2.148438 -6.722656 1.921875 -6.203125 C 1.703125 -5.691406 1.59375 -5.070312 1.59375 -4.34375 C 1.59375 -3.613281 1.738281 -2.9375 2.03125 -2.3125 C 2.320312 -1.695312 2.726562 -1.195312 3.25 -0.8125 C 3.769531 -0.4375 4.367188 -0.242188 5.046875 -0.234375 C 5.484375 -0.222656 5.847656 -0.257812 6.140625 -0.34375 C 6.429688 -0.4375 6.660156 -0.519531 6.828125 -0.59375 C 6.816406 -0.789062 6.800781 -1.078125 6.78125 -1.453125 C 6.757812 -1.828125 6.742188 -2.226562 6.734375 -2.65625 C 6.722656 -3.09375 6.71875 -3.492188 6.71875 -3.859375 C 6.613281 -3.859375 6.476562 -3.851562 6.3125 -3.84375 C 6.144531 -3.832031 6 -3.820312 5.875 -3.8125 C 5.75 -3.800781 5.675781 -3.796875 5.65625 -3.796875 L 5.65625 -4.328125 L 7.765625 -4.328125 L 7.765625 -2.6875 C 7.765625 -2.5 7.765625 -2.320312 7.765625 -2.15625 C 7.773438 -1.988281 7.78125 -1.828125 7.78125 -1.671875 Z M 7.78125 -1.671875 "/></g></g><g style="fill:#ff0011;fill-opacity:1;"><g transform="translate(276.275654, 206.746861)"><path style="stroke:none" d="M 6.6875 -1.890625 L 7.078125 -1.765625 L 6.53125 0.109375 C 6.3125 0.078125 6.113281 0.0507812 5.9375 0.03125 C 5.769531 0.0195312 5.5625 0.0078125 5.3125 0 L 2.0625 0 L 0.578125 0.0625 L 0.53125 -0.265625 L 1.671875 -0.46875 C 1.691406 -0.78125 1.707031 -1.128906 1.71875 -1.515625 C 1.726562 -1.910156 1.734375 -2.316406 1.734375 -2.734375 L 1.734375 -5.90625 C 1.734375 -6.257812 1.726562 -6.601562 1.71875 -6.9375 C 1.71875 -7.269531 1.710938 -7.5625 1.703125 -7.8125 L 1.703125 -7.828125 C 1.691406 -7.984375 1.625 -8.09375 1.5 -8.15625 C 1.375 -8.226562 1.226562 -8.28125 1.0625 -8.3125 C 0.894531 -8.34375 0.734375 -8.375 0.578125 -8.40625 L 0.609375 -8.703125 L 2.203125 -8.640625 L 5.03125 -8.640625 C 5.269531 -8.648438 5.5 -8.664062 5.71875 -8.6875 C 5.9375 -8.71875 6.117188 -8.738281 6.265625 -8.75 L 6.5 -7.03125 L 6.140625 -6.921875 L 5.734375 -8.15625 C 5.472656 -8.175781 5.082031 -8.191406 4.5625 -8.203125 C 4.050781 -8.222656 3.46875 -8.234375 2.8125 -8.234375 L 2.8125 -4.5 C 3.34375 -4.5 3.769531 -4.5 4.09375 -4.5 C 4.414062 -4.507812 4.664062 -4.519531 4.84375 -4.53125 C 5 -4.539062 5.097656 -4.632812 5.140625 -4.8125 C 5.179688 -5 5.207031 -5.164062 5.21875 -5.3125 L 5.5625 -5.265625 L 5.546875 -4.4375 L 5.578125 -3.328125 L 5.234375 -3.265625 L 5.09375 -4.03125 C 4.914062 -4.039062 4.640625 -4.046875 4.265625 -4.046875 C 3.898438 -4.054688 3.414062 -4.066406 2.8125 -4.078125 L 2.8125 -0.421875 L 6 -0.453125 Z M 6.6875 -1.890625 "/></g></g><g style="fill:#ff0011;fill-opacity:1;"><g transform="translate(289.202636, 206.746861)"><path style="stroke:none" d="M 8.5625 -5.671875 L 8.5625 -2.609375 C 8.5625 -1.898438 8.570312 -1.320312 8.59375 -0.875 C 8.613281 -0.4375 8.625 -0.144531 8.625 0 L 8.078125 0 C 8.078125 0 7.972656 -0.117188 7.765625 -0.359375 C 7.566406 -0.609375 7.300781 -0.9375 6.96875 -1.34375 C 6.644531 -1.757812 6.285156 -2.210938 5.890625 -2.703125 C 5.492188 -3.191406 5.085938 -3.6875 4.671875 -4.1875 C 4.253906 -4.695312 3.867188 -5.164062 3.515625 -5.59375 C 3.160156 -6.03125 2.859375 -6.390625 2.609375 -6.671875 C 2.359375 -6.960938 2.203125 -7.140625 2.140625 -7.203125 L 2.1875 -3.390625 C 2.195312 -2.921875 2.207031 -2.453125 2.21875 -1.984375 C 2.226562 -1.523438 2.238281 -1.140625 2.25 -0.828125 C 2.257812 -0.671875 2.328125 -0.550781 2.453125 -0.46875 C 2.578125 -0.394531 2.722656 -0.34375 2.890625 -0.3125 C 3.066406 -0.289062 3.234375 -0.265625 3.390625 -0.234375 L 3.34375 0.0625 L 2 0 L 1.9375 0 L 0.578125 0.0625 L 0.53125 -0.265625 L 1.6875 -0.46875 C 1.695312 -0.820312 1.703125 -1.222656 1.703125 -1.671875 C 1.710938 -2.117188 1.71875 -2.5625 1.71875 -3 L 1.71875 -5.9375 C 1.71875 -6.300781 1.710938 -6.644531 1.703125 -6.96875 C 1.703125 -7.300781 1.695312 -7.582031 1.6875 -7.8125 L 1.6875 -7.84375 C 1.675781 -7.988281 1.609375 -8.09375 1.484375 -8.15625 C 1.359375 -8.226562 1.207031 -8.28125 1.03125 -8.3125 C 0.863281 -8.34375 0.707031 -8.375 0.5625 -8.40625 L 0.59375 -8.71875 L 1.984375 -8.640625 L 2.34375 -8.640625 C 2.582031 -8.328125 2.875 -7.945312 3.21875 -7.5 C 3.570312 -7.050781 3.945312 -6.578125 4.34375 -6.078125 C 4.738281 -5.585938 5.140625 -5.097656 5.546875 -4.609375 C 5.953125 -4.117188 6.332031 -3.660156 6.6875 -3.234375 C 7.039062 -2.804688 7.34375 -2.445312 7.59375 -2.15625 C 7.851562 -1.863281 8.023438 -1.664062 8.109375 -1.5625 L 8.078125 -5.265625 C 8.066406 -5.796875 8.054688 -6.28125 8.046875 -6.71875 C 8.035156 -7.164062 8.023438 -7.535156 8.015625 -7.828125 C 7.992188 -7.984375 7.921875 -8.097656 7.796875 -8.171875 C 7.679688 -8.242188 7.539062 -8.296875 7.375 -8.328125 C 7.207031 -8.359375 7.046875 -8.390625 6.890625 -8.421875 L 6.9375 -8.71875 L 8.234375 -8.640625 L 9.6875 -8.703125 L 9.75 -8.375 L 8.59375 -8.171875 C 8.582031 -7.828125 8.570312 -7.429688 8.5625 -6.984375 C 8.5625 -6.546875 8.5625 -6.109375 8.5625 -5.671875 Z M 8.5625 -5.671875 "/></g></g><g style="fill:#ff0011;fill-opacity:1;"><g transform="translate(304.661257, 206.746861)"><path style="stroke:none" d="M 6.40625 -0.390625 L 7.1875 -1.75 L 7.578125 -1.625 L 7.046875 -0.078125 L 5.8125 0.09375 C 5.8125 0.101562 5.796875 0.109375 5.765625 0.109375 C 5.648438 0.128906 5.523438 0.144531 5.390625 0.15625 C 5.253906 0.175781 5.109375 0.1875 4.953125 0.1875 C 4.066406 0.1875 3.28125 0 2.59375 -0.375 C 1.914062 -0.75 1.382812 -1.273438 1 -1.953125 C 0.625 -2.640625 0.4375 -3.441406 0.4375 -4.359375 C 0.4375 -5.117188 0.5625 -5.78125 0.8125 -6.34375 C 1.0625 -6.90625 1.398438 -7.367188 1.828125 -7.734375 C 2.265625 -8.097656 2.765625 -8.367188 3.328125 -8.546875 C 3.898438 -8.734375 4.5 -8.828125 5.125 -8.828125 C 5.476562 -8.828125 5.84375 -8.8125 6.21875 -8.78125 C 6.59375 -8.75 6.925781 -8.726562 7.21875 -8.71875 L 7.59375 -6.75 L 7.21875 -6.640625 L 6.640625 -8.09375 C 6.515625 -8.164062 6.332031 -8.234375 6.09375 -8.296875 C 5.863281 -8.367188 5.570312 -8.40625 5.21875 -8.40625 C 4.820312 -8.40625 4.410156 -8.328125 3.984375 -8.171875 C 3.566406 -8.023438 3.175781 -7.785156 2.8125 -7.453125 C 2.445312 -7.128906 2.148438 -6.707031 1.921875 -6.1875 C 1.703125 -5.675781 1.59375 -5.0625 1.59375 -4.34375 C 1.59375 -3.59375 1.726562 -2.90625 2 -2.28125 C 2.269531 -1.664062 2.664062 -1.171875 3.1875 -0.796875 C 3.707031 -0.429688 4.335938 -0.25 5.078125 -0.25 C 5.378906 -0.25 5.640625 -0.257812 5.859375 -0.28125 C 6.078125 -0.3125 6.257812 -0.347656 6.40625 -0.390625 Z M 6.40625 -0.390625 "/></g></g><g style="fill:#ff0011;fill-opacity:1;"><g transform="translate(318.436761, 206.746861)"><path style="stroke:none" d="M 4.53125 -0.828125 C 4.550781 -0.671875 4.617188 -0.554688 4.734375 -0.484375 C 4.859375 -0.410156 5.003906 -0.359375 5.171875 -0.328125 C 5.347656 -0.296875 5.515625 -0.265625 5.671875 -0.234375 L 5.625 0.0625 L 4.25 0 L 3.765625 0 L 2.296875 0.0625 L 2.234375 -0.265625 L 3.390625 -0.484375 C 3.410156 -0.796875 3.425781 -1.148438 3.4375 -1.546875 C 3.445312 -1.941406 3.453125 -2.332031 3.453125 -2.71875 L 3.453125 -4.03125 L 2.3125 -5.9375 C 2.082031 -6.3125 1.863281 -6.65625 1.65625 -6.96875 C 1.457031 -7.289062 1.285156 -7.5625 1.140625 -7.78125 C 0.992188 -8.007812 0.84375 -8.160156 0.6875 -8.234375 C 0.53125 -8.316406 0.335938 -8.375 0.109375 -8.40625 L 0.15625 -8.71875 L 1.28125 -8.640625 L 1.6875 -8.640625 L 3.421875 -8.703125 L 3.484375 -8.375 L 2.21875 -8.1875 C 2.351562 -7.9375 2.535156 -7.613281 2.765625 -7.21875 C 2.992188 -6.832031 3.238281 -6.410156 3.5 -5.953125 C 3.757812 -5.503906 4.019531 -5.054688 4.28125 -4.609375 L 5.28125 -6.140625 C 5.5 -6.472656 5.707031 -6.796875 5.90625 -7.109375 C 6.113281 -7.429688 6.285156 -7.707031 6.421875 -7.9375 C 6.484375 -8.0625 6.445312 -8.148438 6.3125 -8.203125 C 6.1875 -8.265625 6.019531 -8.304688 5.8125 -8.328125 C 5.601562 -8.347656 5.414062 -8.375 5.25 -8.40625 L 5.296875 -8.71875 L 6.96875 -8.640625 L 8.046875 -8.703125 L 8.109375 -8.375 L 7.1875 -8.1875 C 6.96875 -7.875 6.71875 -7.507812 6.4375 -7.09375 C 6.164062 -6.6875 5.898438 -6.289062 5.640625 -5.90625 L 4.515625 -4.171875 L 4.515625 -2.71875 C 4.515625 -2.375 4.515625 -2.035156 4.515625 -1.703125 C 4.523438 -1.367188 4.53125 -1.078125 4.53125 -0.828125 Z M 4.53125 -0.828125 "/></g></g></g></svg>